<svg width="30" height="24" viewBox="0 0 30 24" fill="none" xmlns="http://www.w3.org/2000/svg">
<path d="M0 1.07955C0 1.67673 0.482368 2.16175 1.07954 2.16503L1.919 2.16964L2.24949 2.17236C3.17965 2.18001 3.98173 2.82793 4.18479 3.73568L5.44011 9.34734C6.16936 12.6325 6.79248 15.4305 6.98267 16.2811C7.02226 16.4582 7.13195 16.5537 7.31333 16.5572C8.32101 16.5768 12.0184 16.5882 16.3907 16.5882H24.4137C25.2142 16.5882 25.9376 16.1109 26.2525 15.3749L27.8578 11.6223C29.0256 8.89445 29.9881 6.63003 29.9998 6.5879C30.0233 6.47731 27.8695 5.72952 27.7932 5.81905C27.7639 5.85591 26.9188 7.7991 25.9153 10.1425L24.6096 13.1904C24.2945 13.9259 23.5714 14.4028 22.7712 14.4028H10.6161C9.67972 14.4028 8.86871 13.7532 8.6643 12.8394L7.41192 7.24089C6.66648 3.88281 6.03193 1.03375 5.85733 0.250083C5.82551 0.107243 5.73735 0.0270678 5.59108 0.0225428C5.15433 0.00903196 4.11182 0 2.90491 0H1.07955C0.483333 0 0 0.483332 0 1.07955Z" fill="#0C1622"/>
<path d="M10.3755 17.4045C8.71468 17.7784 7.54098 19.216 7.64661 20.7485C7.74051 22.1229 8.7675 23.2551 10.305 23.6817C10.8508 23.8291 11.8191 23.8081 12.3708 23.629C12.987 23.4342 13.3919 23.1972 13.8496 22.7706C14.5597 22.0966 14.8825 21.3277 14.8355 20.4062C14.7651 19.0686 13.8203 17.9258 12.4236 17.4835C11.9541 17.3308 10.8743 17.2886 10.3755 17.4045ZM11.8015 19.6057C12.5351 19.9533 12.6525 20.8432 12.0304 21.3488C11.8191 21.5226 11.4905 21.6437 11.244 21.6437C10.9917 21.6437 10.6396 21.5015 10.4107 21.3014C10.0351 20.9802 9.9412 20.5483 10.1525 20.1271C10.4459 19.5425 11.1795 19.3108 11.8015 19.6057Z" fill="#0C1622"/>
<path d="M20.8156 17.4045C19.6361 17.6731 18.6091 18.5525 18.2335 19.6162C18.0457 20.1429 18.0574 21.0486 18.2452 21.5384C18.4624 22.086 18.7089 22.4336 19.1842 22.8549C19.9178 23.5026 20.6807 23.7765 21.7429 23.7712C22.2828 23.7659 22.4588 23.7449 22.8168 23.629C23.433 23.4342 23.8379 23.1972 24.2957 22.7706C24.9471 22.1492 25.2933 21.3909 25.2933 20.5641C25.2874 19.2002 24.3954 18.0311 22.9753 17.5256C22.5645 17.3834 22.4236 17.3571 21.8309 17.3466C21.3732 17.336 21.0445 17.3518 20.8156 17.4045ZM22.2476 19.6057C22.9811 19.9533 23.0985 20.8432 22.4764 21.3488C21.6959 21.9807 20.4753 21.4699 20.4811 20.5115C20.487 20.1587 20.8274 19.711 21.2147 19.5583C21.4964 19.4477 21.9541 19.4688 22.2476 19.6057Z" fill="#0C1622"/>
</svg>
