<svg width="43" height="40" viewBox="0 0 43 40" fill="none" xmlns="http://www.w3.org/2000/svg">
<path d="M17.5693 14.5019C17.947 14.6267 18.1133 14.6784 18.2625 14.6949C18.4058 14.7108 18.5415 14.6954 18.8652 14.6483L18.8664 14.6477C20.6819 14.3962 22.3864 12.6522 23.072 10.2026C23.6794 8.01137 23.3976 6.14445 22.3662 4.97097L22.1498 4.74517C21.957 4.5604 21.8355 4.4583 21.7054 4.37823C21.6398 4.33793 21.569 4.30201 21.4821 4.26331L21.1597 4.13414C20.7936 3.99768 20.4411 3.91348 20.261 3.90612L20.2619 3.90643C18.7936 3.85328 17.3117 4.82202 16.2396 6.63578L16.2406 6.63609C15.7466 7.48273 15.2836 8.97967 15.2289 9.92826L15.2285 9.92918C15.1309 11.5314 15.6204 13.039 16.4531 13.8585L16.4546 13.86C16.6754 14.082 16.7739 14.1736 16.8982 14.2452C17.0288 14.3204 17.1955 14.3784 17.5693 14.5019Z" fill="#0970FF" stroke="#0C1622" stroke-width="0.5"/>
<path d="M27.5945 17.8145C27.9682 17.9379 28.1368 17.9907 28.2865 18.0082C28.4289 18.0247 28.5626 18.0099 28.8722 17.9631L28.8753 17.9631C29.9796 17.8112 31.2289 16.9415 32.1032 15.686L32.273 15.4305C32.5022 15.0651 32.7448 14.5143 32.9439 13.9295C33.1428 13.3452 33.2916 12.7461 33.3413 12.2877L33.3416 12.2867C33.6238 9.76582 32.6679 7.89163 31.0111 7.36566L31.0083 7.36475C30.7897 7.29249 30.4614 7.22961 30.2924 7.22178L30.2884 7.22149C29.7738 7.19001 29.2597 7.29074 28.7044 7.5363C27.7133 7.97672 26.8189 8.90762 26.1834 10.0829C25.5489 11.2564 25.1855 12.6508 25.2372 13.9892C25.2939 15.3758 25.7116 16.4222 26.4709 17.1686C26.6997 17.3938 26.8 17.4862 26.9253 17.5584C27.0559 17.6336 27.2209 17.691 27.5945 17.8145Z" fill="#0970FF" stroke="#0C1622" stroke-width="0.5"/>
<path d="M6.24924 16.7575C6.83057 17.8175 7.69188 18.317 8.55339 18.319C9.36502 18.3209 10.2312 17.8813 10.9169 16.9463L11.051 16.752C11.6311 15.8637 12.0889 14.2331 12.0902 12.9969L12.0893 12.9966C12.0944 11.3922 11.52 9.86184 10.6724 9.08909L10.6718 9.08786C10.5182 8.94674 10.2151 8.78375 9.87888 8.65821C9.62377 8.56298 9.38338 8.50184 9.20859 8.48301L9.05788 8.47846C8.0821 8.55514 7.27806 9.06343 6.6209 10.0922L6.62059 10.0932L6.51574 10.2642C6.007 11.1341 5.70719 12.2826 5.64392 13.4411C5.57643 14.678 5.77991 15.8914 6.24924 16.7575Z" fill="#0970FF" stroke="#0C1622" stroke-width="0.5"/>
<path d="M33.3178 26.561L33.3191 26.5604C33.5671 26.6306 33.7138 26.6646 33.8592 26.6751C34.0042 26.6855 34.1605 26.6741 34.4261 26.6372L34.4264 26.6362C35.0883 26.5399 35.9269 26.1337 36.5446 25.5949L36.5458 25.5943C36.9326 25.261 37.533 24.5409 37.9278 23.9518L38.0831 23.709C38.27 23.3993 38.4971 22.8449 38.6825 22.2748C38.869 21.7014 38.999 21.1536 39.012 20.8574L39.0126 20.8555C39.0738 19.723 38.7443 18.7383 38.1932 18.2028L38.1907 18.2009C38.0213 18.0325 37.7431 17.8686 37.4255 17.7496C37.188 17.6606 36.9437 17.6025 36.729 17.5822L36.5248 17.5744C35.9978 17.5957 35.5215 17.7423 34.8053 18.1375C33.3975 18.9145 32.2316 20.4735 31.7123 22.3249C31.3415 23.6568 31.4164 24.6296 31.9189 25.4971L31.9207 25.5008C32.2355 26.062 32.6352 26.372 33.3178 26.561Z" fill="#0970FF" stroke="#0C1622" stroke-width="0.5"/>
<path d="M7.86572 30.6633C8.9013 31.6754 10.1911 32.0932 13.1861 32.2445C15.1222 32.3446 16.1524 32.5099 17.3864 32.9638L17.9302 33.1764C18.6445 33.4673 19.0885 33.6884 20.0122 34.2521L21.1243 34.9456C22.6673 35.924 23.1499 36.1789 23.8562 36.4047C26.73 37.3243 29.9308 34.8984 29.9135 31.7714C29.9114 31.3804 29.8851 31.086 29.8171 30.7964C29.7659 30.5786 29.6901 30.3572 29.5769 30.0948L29.4504 29.8175C29.1534 29.1863 28.108 27.2262 27.0887 25.3582C26.5801 24.4263 26.0793 23.5205 25.6846 22.8188C25.4873 22.4679 25.3169 22.1684 25.1851 21.943C25.0499 21.7116 24.9636 21.572 24.9305 21.5277L24.9299 21.5265C23.9658 20.2283 22.298 19.1797 20.7741 18.9047L20.7731 18.9044C19.6727 18.7021 18.5251 18.7605 17.4893 19.0689C17.4308 19.0863 17.2574 19.1564 16.9785 19.2766C16.7069 19.3935 16.3502 19.5512 15.9365 19.7376C15.1088 20.1104 14.0552 20.5948 13.001 21.0858C11.9467 21.5769 10.8924 22.0743 10.0641 22.4727C9.22673 22.8755 8.64067 23.1678 8.50256 23.2547L8.50133 23.2553L8.30713 23.3886C7.85051 23.7289 7.37005 24.2738 7.06754 24.8087L7.06631 24.8093L6.97288 24.9831C6.0782 26.7378 6.4006 29.0882 7.73009 30.5229L7.86572 30.6633Z" fill="#0970FF" stroke="#0C1622" stroke-width="0.5"/>
</svg>
