<svg width="58" height="50" viewBox="0 0 58 50" fill="none" xmlns="http://www.w3.org/2000/svg">
<path d="M1.0103 0.726626C1.70221 0.252829 2.51518 0 3.34675 0H7.37712C8.3933 0 9.40565 0.128009 10.3915 0.38116L11.4273 0.647138C11.9551 0.782682 12.4669 0.977155 12.9536 1.22708L14.3509 1.94471C14.8633 2.20788 15.3492 2.52239 15.8014 2.88367L16.3852 3.35007C16.7847 3.66921 17.1549 4.02527 17.4911 4.4138L18.2424 5.28197C18.5082 5.58911 18.7335 5.93086 18.9124 6.29841L19.6712 7.85727C19.8139 8.15026 19.9275 8.45723 20.0104 8.77355L21.3357 13.8298L22.7857 19.7872L24.1797 24.0827C24.3544 24.6209 24.5981 25.1328 24.9045 25.6049L25.2605 26.1533C25.5433 26.5891 25.8673 26.995 26.2278 27.3653C26.5563 27.7028 26.9114 28.0117 27.2895 28.2891L27.5269 28.4633C27.9534 28.7762 28.429 29.0118 28.933 29.1597L28.9525 29.1654C29.3975 29.296 29.8534 29.3834 30.3143 29.4264L31.9 29.5745H41.8116C43.1944 29.5745 44.5582 29.2438 45.795 28.6086L46.348 28.3246C46.9336 28.0238 47.4889 27.6644 48.0057 27.2515L48.4027 26.9343C48.8608 26.5684 49.2693 26.1414 49.6174 25.6646L49.6872 25.5689C50.1172 24.9801 50.4602 24.3293 50.7051 23.6376C51.0089 22.7794 51.1643 21.8733 51.1643 20.9602V19.2938C51.1643 18.5057 50.9372 17.7352 50.5116 17.0794C50.3952 16.9001 50.25 16.7424 50.0821 16.6131L49.992 16.5438C49.6734 16.2983 49.3021 16.1351 48.9093 16.0679L48.7948 16.0483C47.6143 15.8462 46.4204 15.7374 45.2237 15.7228L30.3158 15.5416C29.795 15.5353 29.2872 15.374 28.8539 15.0773L28.0159 14.5034C27.5695 14.1978 27.1684 13.8276 26.825 13.4043L26.6778 13.2228C26.431 12.9186 26.2057 12.5967 26.0037 12.2595L25.4786 11.383L24.5006 9.93898C24.214 9.51576 24.5088 8.93617 25.0107 8.93617H47.9526C48.7112 8.93617 49.4683 9.00629 50.2147 9.14568C50.982 9.28897 51.7255 9.54354 52.423 9.90175L52.541 9.96237C53.4149 10.4112 54.2293 10.9728 54.9645 11.6336C55.3297 11.9618 55.6549 12.334 55.9332 12.7423L56.566 13.6709C56.8306 14.0592 57.0508 14.4776 57.2222 14.9177L57.5951 15.8751C57.7267 16.213 57.8278 16.5625 57.8973 16.9193L57.9115 16.9923C57.9704 17.2946 58 17.6021 58 17.9103V21.6513C58 22.392 57.9181 23.1303 57.756 23.8521L57.5559 24.7426C57.4381 25.267 57.2602 25.7751 57.0259 26.2565L55.9637 28.4385C55.8025 28.7696 55.6127 29.0851 55.3964 29.3813L54.6994 30.3359C54.5524 30.5372 54.3916 30.7276 54.2183 30.9056L53.1914 31.9604C52.6704 32.4956 52.0895 32.9654 51.4608 33.36L49.3484 34.6859C48.9026 34.9657 48.4347 35.2066 47.9497 35.4059L46.0156 36.2005C45.7201 36.3219 45.4144 36.4152 45.1023 36.4793C44.7255 36.5568 44.3422 36.5957 43.9579 36.5957H32.3143L29.1855 36.2897C28.374 36.2103 27.5739 36.0365 26.8005 35.7718L26.0279 35.5072C25.6627 35.3822 25.311 35.2187 24.9784 35.0195L24.1261 34.5088C23.3728 34.0574 22.6686 33.5245 22.0258 32.9192L21.2116 32.1527C20.744 31.7124 20.3346 31.2109 19.9941 30.6612L19.0571 29.1489L18.1703 27.4789C17.9335 27.033 17.7381 26.5651 17.5868 26.0815L15.95 20.8511L13.6818 11.5321C13.5379 10.9406 13.296 10.379 12.9667 9.87169L12.6421 9.37147C12.3648 8.94432 12.0022 8.58269 11.5784 8.3106L11.2016 8.06869C10.7786 7.79717 10.3222 7.58498 9.84446 7.43777L9.24022 7.25157C8.74393 7.09864 8.23096 7.01007 7.71326 6.98791L4.32958 6.8431C3.79187 6.82009 3.2572 6.7482 2.73184 6.62828L2.19684 6.50617C1.84219 6.42522 1.51152 6.25833 1.23242 6.01944L0.709495 5.57184C0.514796 5.40518 0.355774 5.19895 0.242432 4.96611C0.0830017 4.6386 0 4.27745 0 3.91128V3.15839C0 2.4863 0.19368 1.82925 0.556633 1.27004L0.707422 1.03772C0.787396 0.914503 0.890334 0.808771 1.0103 0.726626Z" fill="#0970FF"/>
<path d="M31.0714 45.1064C31.0714 47.8091 28.9384 50 26.3071 50C23.6759 50 21.5429 47.8091 21.5429 45.1064C21.5429 42.4037 23.6759 40.2128 26.3071 40.2128C28.9384 40.2128 31.0714 42.4037 31.0714 45.1064Z" fill="#0970FF"/>
<path d="M49.5071 45.1064C49.5071 47.8091 47.3741 50 44.7429 50C42.1116 50 39.9786 47.8091 39.9786 45.1064C39.9786 42.4037 42.1116 40.2128 44.7429 40.2128C47.3741 40.2128 49.5071 42.4037 49.5071 45.1064Z" fill="#0970FF"/>
</svg>
