<svg width="123" height="216" viewBox="0 0 123 216" fill="none" xmlns="http://www.w3.org/2000/svg">
<path d="M36.3812 198.086C31.3498 198.713 19.5713 201.023 16.9912 205.722C16.2171 207.132 15.3192 210.562 17.9199 213.005C20.5209 215.448 25.2736 214.806 27.3247 214.179L39.284 209.363" stroke="#0C1622" stroke-width="2" stroke-linecap="round"/>
<path d="M104.946 162.628C95.5582 162.93 54.0935 183.004 34.5347 193.004C32.8692 204.022 39.8977 211.934 43.62 214.512C63.1159 208.852 103.129 197.381 107.218 196.777C111.306 196.174 115.357 193.256 116.871 191.872C127.47 179.495 119.647 168.98 114.41 165.27C110.682 162.628 107.464 162.547 104.946 162.628Z" fill="#0C1622"/>
<path d="M17.0067 159.82C23.6585 160.264 52.6759 171.51 66.4249 177.404L34.9813 193.116C20.9094 197.243 12.2647 195.884 9.6248 194.994C-5.61425 187.652 0.356378 169.539 6.41105 162.83C10.3133 159.509 14.6233 159.661 17.0067 159.82Z" fill="#0C1622"/>
<path d="M91.0396 200.227C95.1971 202.225 97.4448 204.842 98.5846 206.989C101.027 212.579 96.6414 215.939 91.6343 214.359C88.8673 213.486 88.215 212.901 86.7495 211.686C86.0058 211.069 82.5326 207.841 78.5674 204.03" stroke="#0C1622" stroke-width="2" stroke-linecap="round"/>
<path d="M11.6435 112.762L14.0029 155.638C14.2946 160.94 18.6784 165.089 23.9878 165.089H98.2083C103.731 165.089 108.208 160.612 108.208 155.089V111.18C108.208 105.605 103.649 101.106 98.0735 101.181L21.4936 102.214C15.8085 102.29 11.3311 107.085 11.6435 112.762Z" fill="#0C1622"/>
<rect x="13.9277" y="165.923" width="94.2805" height="4.52356" rx="2.26178" fill="#0C1622"/>
<path d="M72.2581 75.9277C80.5512 75.8086 98.8042 82.1177 106.066 101.998" stroke="#0C1622" stroke-width="2" stroke-linecap="round"/>
<path d="M54.0449 75.8099C35.1174 79.5002 26.0703 87.595 18.9278 103.189" stroke="#0C1622" stroke-width="2" stroke-linecap="round"/>
<path d="M110.828 115.352C115.232 122.257 120.232 130.471 110.828 145.926" stroke="#0C1622" stroke-width="2" stroke-linecap="round"/>
<path d="M72.3768 76.5233C73.4482 73.4282 72.4722 71.3454 71.5199 70.9486C65.8059 76.1864 57.1396 74.2421 53.9255 71.0676C52.7827 72.1152 53.4493 75.2138 53.9255 76.1661C60.1156 83.0229 68.9246 79.1818 72.3768 76.5233Z" fill="#0C1622"/>
<path d="M47.0215 95.5696L47.5015 94.8328C50.1967 90.696 55.4423 89.0444 60.0214 90.8908C64.133 92.5487 68.8439 91.3986 71.7291 88.0326L75.4723 83.6655" stroke="#0C1622" stroke-width="2" stroke-linecap="round"/>
<path d="M9.76153 119.733C7.97591 123.94 5.85698 134.137 11.6662 141.28" stroke="#0C1622" stroke-width="2" stroke-linecap="round"/>
<path d="M88.7912 27.8605C86.1723 37.2648 84.8629 38.098 81.0535 42.2645C81.0535 38.1469 80.3461 31.2354 80.3461 28.3575C67.8732 28.3575 57.3467 23.2658 53.6426 20.72C53.7753 29.3537 45.6813 34.9988 45.6813 34.9988C45.6813 34.9988 46.8423 38.4855 47.5058 46.2891C48.0365 52.532 46.5106 51.3255 45.6813 49.9419C43.2929 42.2379 39.3784 44.2967 37.7197 46.2891C17.3667 13.2185 48.6666 6.8285 54.6376 7.43729C59.149 3.58531 65.4407 0.566688 69.8637 0.123935C85.8152 -1.47286 93.0377 12.6118 88.7912 27.8605Z" fill="#0C1622"/>
<path d="M45.9604 55.8282C48.1031 68.9096 62.4852 78.3161 72.8637 67.7192C83.2422 57.1224 81.1653 37.7252 80.0565 28.6738" stroke="#0C1622" stroke-width="2" stroke-linecap="round"/>
<path d="M37.4847 45.4787C36.1752 48.6928 37.4038 55.815 45.9604 55.815" stroke="#0C1622" stroke-width="2" stroke-linecap="round"/>
<path d="M41.2588 47.2451C41.0694 47.9328 41.2209 49.5624 43.3417 50.5782" stroke="#0C1622" stroke-width="2" stroke-linecap="round"/>
<path d="M79.7678 54.1497C82.5605 52.9854 84.5294 48.6739 83.7719 41.7695" stroke="#0C1622" stroke-width="2" stroke-linecap="round"/>
<path d="M64.0546 62.0065C66.7925 62.7207 66.6194 60.7552 68.6972 59.0305" stroke="#0C1622" stroke-width="2" stroke-linecap="round"/>
<ellipse cx="72.2281" cy="45.3741" rx="1.78562" ry="1.78562" fill="#0C1622"/>
<ellipse cx="56.5145" cy="45.6122" rx="1.78562" ry="1.78562" fill="#0C1622"/>
<path d="M52.6263 41.531C53.0021 40.4246 54.6234 38.3779 58.1022 39.0417" stroke="#0C1622" stroke-width="2" stroke-linecap="round"/>
<path d="M69.292 39.387C70.1217 38.6684 72.3784 37.6623 74.7679 39.387" stroke="#0C1622" stroke-width="2" stroke-linecap="round"/>
<path d="M63.5323 44.3879C63.255 46.7387 63.0664 51.506 64.5305 51.7684" stroke="#0C1622" stroke-width="2" stroke-linecap="round"/>
</svg>
